<?xml version="1.0" encoding="utf-8"?>
<!-- Generator: Adobe Illustrator 19.0.0, SVG Export Plug-In . SVG Version: 6.00 Build 0)  -->
<svg version="1.1" id="Layer_1" xmlns="http://www.w3.org/2000/svg" xmlns:xlink="http://www.w3.org/1999/xlink" x="0px" y="0px"
	 viewBox="0 0 612 792" style="enable-background:new 0 0 612 792;" xml:space="preserve">
<style type="text/css">
	.st0{fill:none;stroke:#000000;stroke-width:2;}
	.st1{fill:#ED1C24;}
	.st2{fill:none;stroke:#000000;stroke-width:3;}
	.st3{fill:none;stroke:#939598;stroke-width:2;}
</style>
<g>
	<path class="st0" d="M311.6,582.7c0,0-56.1-22.7-54.9-85.3c0,0,16.1-59-10.1-106.2c0,0-14.3-37.6,32.2-43.5c0,0,25.6-0.6,38.8,10.7
		c0,0,22.1,1.2,36.4-7.2c0,0,42.9-14.3,51.9,16.7c0,0,6,25.6-10.7,50.7c0,0-12.5,44.1,5.4,76.9c0,0,16.1,50.1-48.3,87.1
		c0,0-23.9-11.9-10.1-72.7c0,0,16.1-52.5-13.7-63.2c0,0-28.6,11.9-11.3,68C317,514.7,332.5,563.6,311.6,582.7z"/>
	<path class="st1" d="M301.5,582.1c0,0-44.7-74.5-18.5-140.8c0,0,6-21.5-1.2-33.4c0,0,0.6-15.5,22.1-9.5c0,0,13.7,8.9,31-3
		c0,0,17.9-5.4,21.5,11.3c0,0-7.8,23.3,3,38.2c0,0,19.1,33.4,4.2,89.4c0,0-13.1,35.8-17.9,51.9l-4.8-0.6c0,0,35.2-65,16.1-123.4
		c0,0-6.6-26.8-22.7-28c0,0-29.2-2.4-32.8,2.4c0,0-25.1,8.9-19.7,82.3c0,0,12.5,44.7,23.9,63.2H301.5z"/>
	<path class="st1" d="M85,441.9c0,16-13,29-29,29s-28.9-13-28.9-29c0-16,13-29,28.9-29S85,425.9,85,441.9z"/>
	<path class="st1" d="M575.4,441.9c0,16-13,29-28.9,29c-16,0-29-13-29-29c0-16,13-29,29-29C562.4,412.9,575.4,425.9,575.4,441.9z"/>
	<path class="st0" d="M501.5,438.3C501.5,543,414.9,628,308,628c-106.9,0-193.5-84.9-193.5-189.7S201.2,248.6,308,248.6
		C414.9,248.6,501.5,333.5,501.5,438.3z"/>
	<path class="st0" d="M609.2,441c0,164.6-134.8,298-301.1,298C141.8,739,7,605.6,7,441c0-164.6,134.8-298,301.1-298
		C474.4,143.1,609.2,276.5,609.2,441z"/>
	<path d="M235.7,331.1c0,0-24.6,30.3-25.4,49.6v203.3h10.1V380.5c0,0-2-25.1,21-46.1L235.7,331.1z"/>
	<path class="st2" d="M286.6,328.8c-5.6,11.8-24.2,14.8-41.5,6.6c-17.3-8.2-26.8-24.4-21.2-36.3c5.6-11.8,24.2-14.8,41.5-6.6
		C282.7,300.8,292.2,317,286.6,328.8z"/>
	<path class="st3" d="M276.5,324.2c-4,8.4-17.2,10.5-29.4,4.7c-12.3-5.8-19-17.3-15-25.7c4-8.4,17.2-10.5,29.4-4.7
		C273.8,304.3,280.5,315.8,276.5,324.2z"/>
	<g>
		<g>
			<g>
				<g>
					<path d="M126.9,584l-14.6,11.9c0,0,1.2,1.5,2.3,2.9c0.6,0.7,1.2,1.4,1.7,1.9c0.5,0.5,0.8,0.9,0.8,0.9c1.9,2.1,3.3,3.5,4.3,4.3
						c1.2,1,2.4,1.8,3.6,2.2c1.1,0.4,2.4,0.4,3.8,0c1.4-0.4,2.9-1.4,4.5-2.9c1.6-1.5,2.6-2.9,3-4.2c0.4-1.3,0.5-2.5,0.2-3.8
						c-0.3-1.3-0.9-2.7-1.9-4.1c-0.7-1.1-2.4-3-4.9-5.9L126.9,584z M125,573.8c0,0,2.6,3.2,5.2,6.5c1.3,1.6,2.6,3.3,3.6,4.4
						c1,1.2,1.7,1.9,1.7,1.9c2.5,2.8,4.3,5,5.3,6.8c0.7,1.2,1.3,2.3,1.8,3.4c0.5,1.1,0.9,2.2,1.1,3.3c0.5,2.2,0.4,4.4-0.1,6.4
						c-0.6,2-1.8,4-3.6,6c-1.6,1.7-3.4,2.8-5.3,3.3c-2.3,0.6-4.7,0.6-7.3-0.1c-1-0.3-2-0.7-3.1-1.3c-1.1-0.6-2.3-1.3-3.5-2.2
						c-1.8-1.4-3.9-3.5-6.5-6.3c0,0-0.8-0.9-2-2.2c-0.6-0.7-1.3-1.5-2-2.3c-0.7-0.9-1.5-1.8-2.2-2.7c-3-3.7-6-7.5-6-7.5L125,573.8z"
						/>
					<path d="M166.9,652l2.7-4.1c0,0-5.7-4-11.3-8c-2.8-2.1-5.4-4.3-7.5-5.9c-2-1.6-3.4-2.7-3.4-2.7l4.9-5.9c0,0,4.7,3.7,9.4,7.5
						c2.4,1.8,4.9,3.5,6.7,4.8c1.8,1.3,3.1,2.2,3.1,2.2l2.7-4c0,0-1.2-0.8-3-2.1c-1.8-1.3-4.2-2.9-6.6-4.7c-4.6-3.7-9.2-7.3-9.2-7.3
						l4-4.9c0,0,4.9,3.8,9.7,7.7c5.1,3.6,10.1,7.1,10.1,7.1l2.7-4.1c0,0-1.7-1.2-4.2-3c-2.5-1.8-6-4.1-9.2-6.8
						c-1.6-1.3-3.3-2.6-4.8-3.8c-0.8-0.6-1.5-1.2-2.2-1.7c-0.7-0.6-1.3-1.2-1.9-1.7c-2.3-2.1-3.9-3.5-3.9-3.5l-19.1,21.3
						c0,0,1.8,1.6,4.5,4c0.7,0.6,1.4,1.3,2.2,1.9c0.8,0.6,1.7,1.3,2.5,2c1.8,1.4,3.6,2.9,5.5,4.4c0.9,0.7,1.9,1.5,2.8,2.2
						c0.9,0.7,1.9,1.4,2.8,2c1.8,1.3,3.5,2.5,5,3.5C164.9,650.6,166.9,652,166.9,652z"/>
					<path d="M182.4,661.4l9.3-16.4c0,0,1.8,6.4,4,12.9c0.5,1.7,1.1,3.2,1.7,4.7c0.6,1.5,1.1,2.9,1.6,4.1c1,2.4,1.6,4,1.6,4
						s2.3,1.1,4.6,2.2c1.1,0.6,2.3,1,3.2,1.4c0.9,0.4,1.5,0.6,1.5,0.6l11.1-26.4c0,0-0.5-0.2-1.2-0.5c-0.7-0.3-1.7-0.7-2.7-1.1
						c-1.9-0.9-3.8-1.8-3.8-1.8l-8.1,17.4c0,0-0.6-1.6-1.5-4.1c-0.9-2.4-2.1-5.6-3.1-8.8c-2.1-6.6-3.7-13-3.7-13s-0.5-0.3-1.2-0.7
						c-0.7-0.4-1.7-0.9-2.6-1.5c-1.9-1.2-3.7-2.3-3.7-2.3l-15,24.4c0,0,2,1.2,4,2.5c1,0.6,2,1.2,2.8,1.6
						C181.9,661.1,182.4,661.4,182.4,661.4z"/>
					<path d="M240.5,685.6l6.4-22.9c0,0,3.3,0.9,6.5,1.8c1.6,0.5,3.3,0.8,4.5,1c1.2,0.3,2.1,0.4,2.1,0.4l1-4.8c0,0-0.5-0.1-1.5-0.3
						c-0.9-0.2-2.3-0.5-3.9-0.9c-3.2-0.9-7.5-2.1-11.8-3.2c-1.1-0.3-2.1-0.7-3.2-1c-1-0.4-2.1-0.7-3-1c-2-0.7-3.8-1.3-5.4-1.8
						c-0.8-0.3-1.5-0.5-2.2-0.7c-0.6-0.3-1.2-0.5-1.6-0.7c-0.9-0.4-1.4-0.6-1.4-0.6l-1.8,4.5c0,0,0.8,0.3,2,0.8
						c1.2,0.5,2.8,1,4.4,1.6c3.2,1.1,6.4,2.2,6.4,2.2l-7.3,22.6c0,0,0.6,0.2,1.5,0.5c0.9,0.3,2.1,0.7,3.3,1.1
						C238.1,684.9,240.5,685.6,240.5,685.6z"/>
					<path d="M284.1,682.5c0,0-0.3-0.7-0.9-1.7c-0.5-1-1.2-2.4-1.9-3.8c-1.3-2.9-2.6-5.7-2.6-5.7s-1.9,2.4-3.8,4.8
						c-2,2.4-4,4.7-4,4.7s3.3,0.5,6.6,1C280.8,682.2,284.1,682.5,284.1,682.5z M301.6,695.1c0,0-2.8-0.1-5.5-0.2
						c-1.4-0.1-2.8-0.2-3.8-0.3c-1-0.1-1.7-0.2-1.7-0.2s-0.9-1.7-1.9-3.4c-0.9-1.7-1.8-3.4-1.8-3.4s-1.2-0.1-3.1-0.3
						c-0.9-0.1-2-0.2-3.1-0.3c-1.1-0.2-2.4-0.4-3.6-0.5c-4.9-0.7-9.8-1.5-9.8-1.5s-1.3,1.5-2.6,2.9c-1.3,1.4-2.6,2.8-2.6,2.8
						l-10.7-2.3c0,0,6.4-5.9,12.3-12c1.5-1.5,2.9-3,4.2-4.5c1.3-1.5,2.6-2.9,3.6-4.1c2.1-2.4,3.4-4,3.4-4s2.4,0.4,4.8,0.7
						c1.2,0.2,2.4,0.4,3.3,0.5c0.9,0.1,1.5,0.1,1.5,0.1s3.7,7.5,7.9,15.1c1.1,1.9,2.2,3.8,3.2,5.6c1,1.7,2,3.3,2.9,4.7
						C300.4,693.3,301.6,695.1,301.6,695.1z"/>
					<path d="M342.7,693.5l-0.6-4.8c0,0-6.2,0.6-12.4,1.1c-0.8,0.1-1.6,0.1-2.3,0.2c-0.8,0-1.5,0.1-2.2,0.1c-1.5,0-2.8,0.1-4,0.1
						c-2.3,0.1-3.9,0.1-3.9,0.1l-0.5-23.5c0,0-2.3,0.1-4.5,0.1c-1.1,0.1-2.3,0-3.1,0c-0.8,0-1.4,0-1.4,0l-0.4,28.4c0,0,0.6,0,1.5,0
						c1,0,2.4,0.1,4,0c3.3-0.1,7.8-0.2,12.2-0.4c1.1-0.1,2.2,0,3.3-0.1c1.1-0.1,2.2-0.2,3.2-0.3c2.1-0.2,4-0.4,5.7-0.5
						C340.5,693.7,342.7,693.5,342.7,693.5z"/>
					<path d="M393.2,676c-0.7,0.8-1.6,1.5-2.6,2.1c-1,0.6-2.1,1.2-3.4,1.5c-3.5,1-6.6,1-9.1,0.2c-2.6-0.9-4.3-3.1-5.2-6.6
						c-0.8-3.3-0.4-6,1.3-8.1c1.7-2.1,4.1-3.5,7.4-4.5c1.2-0.3,2.3-0.6,3.4-0.8c1.1-0.1,2.1-0.2,3,0c1.9,0.2,3.4,1,4.4,2.2
						c0,0,2.1-1.1,4.2-2.2c1.1-0.5,2.1-1.2,2.8-1.6c0.8-0.5,1.3-0.8,1.3-0.8c-0.9-0.9-1.9-1.5-2.9-2.1c-1-0.5-2.1-0.8-3.3-1.1
						c-4-0.8-8.5-0.3-13.8,1.5c-3,0.8-5.7,1.9-8,3.3c-2.3,1.3-4.2,3-5.8,4.6c-3.2,3.4-4.4,7.5-3.4,12.1c0.9,4.4,3.7,7.5,8.5,9.1
						c2.4,0.9,5,1.1,7.8,1c2.8-0.1,5.9-0.6,9.1-1.6c1.3-0.3,2.5-0.8,3.7-1.3c1.1-0.5,2.2-1,3.2-1.6c2-1.1,3.7-2.3,5.1-3.6
						c2.8-2.5,4.2-5.7,4.4-9.2c0,0-0.6,0.1-1.5,0.3c-0.9,0.2-2.1,0.5-3.3,0.7c-2.4,0.4-4.8,0.7-4.8,0.7
						C395.5,672.5,394.7,674.4,393.2,676z"/>
					<path d="M434.8,651.4c0,0-2.8-1.5-5.5-3c-2.7-1.5-5.4-3-5.4-3s-0.1,3.1-0.3,6.1c-0.2,3-0.5,6.1-0.5,6.1s0.7-0.4,1.9-0.9
						c1.1-0.6,2.6-1.2,4-2.1C431.9,653,434.8,651.4,434.8,651.4z M456.3,651.5l-9.4,6c0,0-1.8-0.8-3.5-1.7c-1.8-0.9-3.5-1.8-3.5-1.8
						s-4.3,2.4-8.6,4.8c-0.5,0.3-1.1,0.6-1.6,0.9c-0.5,0.3-1.1,0.5-1.6,0.8c-1,0.5-2,1-2.8,1.4c-1.7,0.8-2.8,1.4-2.8,1.4
						s-0.2,1.9-0.4,3.8c-0.2,1.9-0.5,3.8-0.5,3.8s-0.6,0.3-1.5,0.7c-0.9,0.5-2.2,1-3.4,1.5c-2.5,1-5,2.1-5,2.1s0.4-2.1,1.1-5.3
						c0.3-1.6,0.6-3.4,1-5.4c0.2-1,0.3-2,0.5-3c0.1-1.1,0.3-2.1,0.4-3.2c1.2-8.5,1.8-16.8,1.8-16.8s0.5-0.3,1.4-0.7
						c0.8-0.4,1.9-0.9,3-1.5c2.1-1.2,4.2-2.4,4.2-2.4s1.9,1,4.7,2.5c1.4,0.7,3.1,1.6,4.9,2.5c0.9,0.4,1.9,0.9,2.8,1.4
						c1,0.4,1.9,0.9,2.9,1.3C448.1,648.3,456.3,651.5,456.3,651.5z"/>
					<path d="M459.1,629.3c0,0,0.4-0.3,0.9-0.6c0.5-0.4,1.3-0.9,1.9-1.5c1.4-1.1,2.7-2.2,2.7-2.2c3.6-2.9,5.7-4.8,6.4-5.7
						c0.7-0.9,1.1-1.8,1.2-2.7c0.1-0.9-0.2-1.6-0.7-2.2c-0.6-0.7-1.5-1-2.5-0.9c-1,0.1-2.1,0.6-3.4,1.4c-0.6,0.4-2.4,1.8-5.3,4.2
						c0,0-1.4,1.1-2.8,2.3c-0.7,0.6-1.4,1.1-2,1.5c-0.5,0.4-0.9,0.7-0.9,0.7L459.1,629.3z M460.8,648.5L444.5,625
						c0,0,3.9-2.8,7.7-5.6c2-1.3,3.7-3,5.1-4.1c1.4-1.1,2.3-1.9,2.3-1.9c1.8-1.5,3.5-2.8,4.9-3.8c1.4-1.1,2.5-1.9,3.5-2.5
						c2-1.1,3.9-1.6,5.7-1.6c1.9,0.1,3.4,0.7,4.6,1.9c1.5,1.5,2,3.5,1.4,6c-0.6,2.4-2.3,5.2-5.2,8.3c2-0.8,3.8-1.4,5.4-1.7
						c1.6-0.3,4-0.4,7.3-0.4c0,0,2.1,0,4.2,0c1,0,2.1,0,2.8-0.1c0.8,0,1.3-0.1,1.3-0.1s-0.5,0.5-1.3,1.4c-0.8,0.8-2,1.8-3.1,2.8
						c-2.2,2.1-4.5,4.1-4.5,4.1s-2.4,0.1-4.7,0.1c-1.2,0-2.4,0-3.3,0c-0.9,0-1.5,0-1.5,0c-3.4-0.1-5.6,0-6.7,0.1
						c-1.1,0.1-2.1,0.5-3,1c-0.9,0.5-2.2,1.5-4,2.8l-1.6,1.2l7.2,9.5L460.8,648.5z"/>
					<path d="M524.1,586.1l-4-2.8c0,0-4.2,5.5-8.4,11c-0.5,0.7-1.1,1.4-1.6,2c-0.6,0.6-1.1,1.3-1.6,1.9c-1.1,1.2-2,2.4-2.9,3.4
						c-1.7,2-2.8,3.3-2.8,3.3l-5.7-5.1c0,0,3.9-4.6,7.8-9.1c3.7-4.8,7.3-9.6,7.3-9.6l-3.9-2.9c0,0-3.6,4.7-7.2,9.4
						c-3.8,4.5-7.7,8.9-7.7,8.9l-4.7-4.2c0,0,1-1.2,2.5-2.9c1.5-1.8,3.6-4.1,5.5-6.5c3.8-4.9,7.5-9.8,7.5-9.8l-3.9-2.9
						c0,0-1.3,1.7-3.2,4.1c-1.9,2.5-4.3,5.9-7.1,9c-1.4,1.6-2.7,3.2-4,4.6c-1.3,1.5-2.4,2.9-3.5,4c-2.2,2.2-3.6,3.7-3.6,3.7
						l20.6,19.9c0,0,1.7-1.7,4.2-4.3c1.3-1.3,2.6-2.9,4.1-4.6c1.5-1.7,3-3.5,4.6-5.3c0.8-0.9,1.6-1.8,2.3-2.7
						c0.7-0.9,1.4-1.9,2.1-2.7c1.4-1.8,2.6-3.5,3.7-4.9C522.7,588,524.1,586.1,524.1,586.1z"/>
				</g>
			</g>
		</g>
	</g>
	<path d="M132.7,272.3l10-5.8c3.2,5.3,4.5,10.4,3.9,15.2c-0.6,4.8-2.9,9.5-7,13.9c-5.1,5.5-11.1,8.2-18,8.4
		c-6.9,0.1-13.5-2.7-19.7-8.6c-6.7-6.2-10.2-12.8-10.5-19.7c-0.4-7,2.1-13.3,7.5-19.1c4.7-5,9.9-7.8,15.8-8.2
		c3.4-0.3,7.2,0.6,11.2,2.6l-5.7,9.9c-2.5-1.4-5.1-1.9-7.7-1.5c-2.6,0.4-5,1.8-7.1,4c-2.9,3.1-4.1,6.5-3.8,10.4
		c0.4,3.9,2.9,8.1,7.6,12.5c5.1,4.7,9.5,7.2,13.4,7.3c3.9,0.1,7.2-1.3,10-4.3c2-2.2,3.1-4.7,3.3-7.6
		C136,278.8,135,275.7,132.7,272.3z"/>
	<path d="M148.1,231.6c0.6-4.2,2.9-7.6,6.8-10.2c3.9-2.6,7.9-3.4,11.9-2.4c4.1,1,7.8,4.1,11.3,9.4c3.5,5.3,5,10.1,4.3,14.3
		c-0.6,4.3-2.8,7.6-6.6,10.1c-3.7,2.5-7.7,3.2-12,2.2c-4.2-1-8.1-4.1-11.5-9.3C148.9,240.5,147.5,235.8,148.1,231.6z M160.4,265.5
		c6.8,1.4,13.7-0.2,20.6-4.9c6.8-4.6,10.9-10.3,12.3-17.2c1.3-6.9-0.5-14-5.4-21.3c-4.9-7.4-10.9-11.8-17.8-13.2
		c-6.9-1.4-13.8,0.2-20.6,4.8c-3.8,2.5-6.7,5.4-8.8,8.5c-1.6,2.4-2.7,5.1-3.3,8.1c-0.6,3.1-0.7,6.1-0.2,9.1
		c0.7,4.1,2.6,8.5,5.7,13.1C147.7,259.8,153.6,264.1,160.4,265.5z"/>
	<path d="M208.2,242.7l-18.8-51.1l10.3-3.8l34.1,26.2l-12.6-34.1l9.9-3.6l18.8,51.1l-10.7,3.9l-33.5-25.6l12.3,33.4L208.2,242.7z"/>
	<path d="M258.8,225.6l-7.5-54l38.1-5.3l1.3,9.1l-26.9,3.8l1.8,12.7l23.2-3.2l1.3,9.1l-23.2,3.2l3.2,23L258.8,225.6z"/>
	<path d="M303.9,220.8l0.2-54.5l11.3,0l-0.2,54.5L303.9,220.8z"/>
	<path d="M347.7,178.3c4.5,0.8,7.6,1.4,9.1,2c2,0.8,3.6,1.9,4.7,3.4c1.2,1.5,1.9,3.4,2.3,5.7c0.4,2.4,0.2,5.6-0.5,9.7
		c-0.7,4.1-1.6,7.4-2.8,9.6c-1.2,2.3-2.4,3.9-3.8,4.7c-1.4,0.9-3,1.3-4.9,1.5c-1.5,0.1-3.7-0.1-6.9-0.6l-8.3-1.4l5.9-35.5
		L347.7,178.3z M324.1,220.3l21,3.5c4.1,0.7,7.5,0.8,10.1,0.5c3.5-0.5,6.3-1.4,8.5-3c3-2,5.5-4.9,7.5-8.5c1.7-3,2.9-6.7,3.6-11.2
		c0.8-5,0.9-9.4,0.3-13c-0.6-3.6-1.9-6.8-3.8-9.6c-1.9-2.7-4.4-4.9-7.5-6.3c-2.3-1.1-5.8-2-10.3-2.8l-20.4-3.4L324.1,220.3z"/>
	<path d="M376.6,230.2l20.6-50.4l38.6,15.8l-3.5,8.5l-28.1-11.5l-4.6,11.2l26.2,10.7l-3.5,8.5l-26.2-10.7l-5.6,13.6l29.1,11.9
		l-3.5,8.5L376.6,230.2z"/>
	<path d="M421.8,249.5l31.2-44.6l9,6.3l-2,43l20.8-29.8l8.6,6L458.2,275l-9.3-6.5l1.9-42.1l-20.4,29.2L421.8,249.5z"/>
	<path d="M473.4,290.5l33-30.9l-11.3-12.1l6.7-6.3l30.3,32.4l-6.7,6.3l-11.3-12.1l-33,30.9L473.4,290.5z"/>
</g>
</svg>
